G75*
G70*
%OFA0B0*%
%FSLAX24Y24*%
%IPPOS*%
%LPD*%
%AMOC8*
5,1,8,0,0,1.08239X$1,22.5*
%
%ADD10C,0.0000*%
%ADD11R,0.0594X0.0594*%
%ADD12C,0.0594*%
%ADD13R,0.0355X0.0473*%
%ADD14C,0.0808*%
%ADD15R,0.0780X0.0780*%
%ADD16OC8,0.0780*%
D10*
X000500Y000130D02*
X000500Y026630D01*
X024500Y026630D01*
X024500Y000130D01*
X000500Y000130D01*
D11*
X019941Y005732D03*
D12*
X018941Y005732D03*
X017941Y005732D03*
X016941Y005732D03*
X015941Y005732D03*
X014941Y005732D03*
X013941Y005732D03*
X012941Y005732D03*
X011941Y005732D03*
X010941Y005732D03*
X009941Y005732D03*
X008941Y005732D03*
X007941Y005732D03*
X006941Y005732D03*
X005941Y005732D03*
X004941Y005732D03*
X004941Y023732D03*
X005941Y023732D03*
X006941Y023732D03*
X007941Y023732D03*
X008941Y023732D03*
X009941Y023732D03*
X010941Y023732D03*
X011941Y023732D03*
X012941Y023732D03*
X013941Y023732D03*
X014941Y023732D03*
X015941Y023732D03*
X016941Y023732D03*
X017941Y023732D03*
X018941Y023732D03*
X019941Y023732D03*
D13*
X013839Y002425D03*
X013169Y002425D03*
X012500Y002425D03*
X011831Y002425D03*
X011161Y002425D03*
X011122Y001362D03*
X013839Y001362D03*
D14*
X005175Y003630D02*
X004407Y003630D01*
X004152Y002528D02*
X003384Y002528D01*
X003246Y003630D02*
X002478Y003630D01*
D15*
X011500Y018917D03*
D16*
X012500Y018917D03*
X013500Y018917D03*
X013500Y019917D03*
X012500Y019917D03*
X011500Y019917D03*
M02*
