%
M48
M72
T01C0.0118
T02C0.0354
T03C0.0400
T04C0.0512
%
T01
X3675Y7206
X7061Y9685
X7125Y13062
X7024Y14323
X6262Y14287
X7409Y15270
X11026Y17169
X11413Y16754
X11709Y15890
X11924Y15687
X12407Y15489
X12645Y15889
X12984Y16749
X13318Y16749
X13615Y16751
X13635Y17306
X14051Y17239
X14617Y16989
X15095Y16145
X15054Y14549
X14625Y13530
X15014Y13138
X13757Y13852
X13275Y13370
X12193Y14702
X11245Y15419
X11394Y13380
X11071Y12937
X11397Y11931
X10539Y7579
X10627Y6649
X10285Y5292
X14433Y7663
X14856Y7401
X15269Y7167
X18020Y10268
X18020Y10661
X17823Y10957
X17823Y11350
X17823Y11744
X17823Y12138
X17823Y12532
X17724Y12925
X18217Y13319
X18512Y13614
X18807Y13910
X19391Y14708
X19398Y15878
X20283Y16764
X20579Y16469
X20874Y16173
X21169Y15878
X21366Y15484
X21760Y15484
X21957Y15780
X22350Y15976
X22744Y15976
X23138Y15976
X23531Y15976
X23907Y15955
X22774Y15150
X23236Y14303
X23531Y14106
X23531Y13713
X23531Y13319
X23433Y12925
X23039Y12925
X22646Y12925
X22252Y12925
X21858Y12925
X21858Y12532
X21858Y12138
X21858Y11744
X21858Y11350
X21858Y10957
X21858Y10563
X21841Y10179
X22252Y10071
X22547Y9776
X22547Y9382
X22941Y9382
X23335Y9382
X23728Y9382
X24122Y9382
X20382Y9382
X20382Y9776
X20185Y10169
X19611Y10296
X19201Y10268
X18807Y10268
X18413Y10268
X19594Y9382
X19988Y9382
X17134Y12335
X17035Y12039
X16642Y11941
X16937Y12630
X16936Y14657
X17199Y14880
X18249Y16193
X18330Y16865
X18626Y16874
X18017Y16995
X17788Y17252
X17571Y16983
X13320Y17290
X12983Y17291
X11006Y17974
X4425Y21698
X2643Y21710
T02
X4941Y23732
X5941Y23732
X6941Y23732
X7941Y23732
X8941Y23732
X9941Y23732
X10941Y23732
X11941Y23732
X12941Y23732
X13941Y23732
X14941Y23732
X15941Y23732
X16941Y23732
X17941Y23732
X18941Y23732
X19941Y23732
X19941Y5732
X18941Y5732
X17941Y5732
X16941Y5732
X15941Y5732
X14941Y5732
X13941Y5732
X12941Y5732
X11941Y5732
X10941Y5732
X9941Y5732
X8941Y5732
X7941Y5732
X6941Y5732
X5941Y5732
X4941Y5732
T03
X11500Y18917
X12500Y18917
X13500Y18917
X13500Y19917
X12500Y19917
X11500Y19917
T04
X2862Y3630
X3768Y2528
X4791Y3630
M30
