G75*
G70*
%OFA0B0*%
%FSLAX24Y24*%
%IPPOS*%
%LPD*%
%AMOC8*
5,1,8,0,0,1.08239X$1,22.5*
%
%ADD10C,0.0000*%
%ADD11C,0.0050*%
%ADD12C,0.0080*%
%ADD13C,0.0020*%
D10*
X000500Y000130D02*
X000500Y026630D01*
X024500Y026630D01*
X024500Y000130D01*
X000500Y000130D01*
D11*
X000591Y002721D02*
X000591Y026539D01*
X024409Y026539D01*
X024409Y002721D01*
X000591Y002721D01*
D12*
X010925Y002032D02*
X010925Y001717D01*
X011476Y001362D02*
X013484Y001362D01*
X014075Y001717D02*
X014075Y002032D01*
D13*
X013277Y001888D02*
X013277Y001688D01*
X013237Y001648D01*
X013157Y001648D01*
X013117Y001688D01*
X013117Y001888D01*
X013038Y001848D02*
X012998Y001888D01*
X012918Y001888D01*
X012878Y001848D01*
X012799Y001888D02*
X012799Y001768D01*
X012719Y001808D01*
X012678Y001808D01*
X012638Y001768D01*
X012638Y001688D01*
X012678Y001648D01*
X012759Y001648D01*
X012799Y001688D01*
X012878Y001688D02*
X012878Y001728D01*
X012918Y001768D01*
X012998Y001768D01*
X013038Y001808D01*
X013038Y001848D01*
X012958Y001928D02*
X012958Y001608D01*
X012998Y001648D02*
X012918Y001648D01*
X012878Y001688D01*
X012998Y001648D02*
X013038Y001688D01*
X012799Y001888D02*
X012638Y001888D01*
X012639Y001101D02*
X012479Y001101D01*
X012400Y001061D02*
X012400Y000901D01*
X012360Y000860D01*
X012279Y000860D01*
X012239Y000901D01*
X012160Y000860D02*
X012000Y000860D01*
X011921Y000860D02*
X011841Y000860D01*
X011881Y000860D02*
X011881Y001101D01*
X011921Y001101D02*
X011841Y001101D01*
X011761Y001101D02*
X011761Y000941D01*
X011681Y000860D01*
X011601Y000941D01*
X011601Y001101D01*
X011522Y001101D02*
X011522Y000860D01*
X011362Y000860D01*
X011282Y000860D02*
X011282Y001101D01*
X011162Y001101D01*
X011122Y001061D01*
X011122Y000981D01*
X011162Y000941D01*
X011282Y000941D01*
X011202Y000941D02*
X011122Y000860D01*
X011043Y000901D02*
X011003Y000860D01*
X010923Y000860D01*
X010883Y000901D01*
X010883Y000941D01*
X010923Y000981D01*
X011003Y000981D01*
X011043Y001021D01*
X011043Y001061D01*
X011003Y001101D01*
X010923Y001101D01*
X010883Y001061D01*
X010804Y001101D02*
X010723Y001021D01*
X010643Y001101D01*
X010643Y000860D01*
X010564Y000860D02*
X010564Y001101D01*
X010444Y001101D01*
X010404Y001061D01*
X010404Y000901D01*
X010444Y000860D01*
X010564Y000860D01*
X010804Y000860D02*
X010804Y001101D01*
X011362Y001101D02*
X011522Y001101D01*
X011522Y000981D02*
X011442Y000981D01*
X012000Y001101D02*
X012160Y001101D01*
X012160Y000860D01*
X012160Y000981D02*
X012080Y000981D01*
X012239Y001061D02*
X012279Y001101D01*
X012360Y001101D01*
X012400Y001061D01*
X012559Y000981D02*
X012639Y000981D01*
X012718Y000981D02*
X012758Y000941D01*
X012878Y000941D01*
X012798Y000941D02*
X012718Y000860D01*
X012639Y000860D02*
X012479Y000860D01*
X012639Y000860D02*
X012639Y001101D01*
X012718Y001061D02*
X012758Y001101D01*
X012878Y001101D01*
X012878Y000860D01*
X012958Y000860D02*
X013038Y000941D01*
X012998Y000941D02*
X013118Y000941D01*
X013118Y000860D02*
X013118Y001101D01*
X012998Y001101D01*
X012958Y001061D01*
X012958Y000981D01*
X012998Y000941D01*
X013197Y000860D02*
X013277Y000860D01*
X013237Y000860D02*
X013237Y001101D01*
X013277Y001101D02*
X013197Y001101D01*
X012718Y001061D02*
X012718Y000981D01*
M02*
