G75*
G70*
%OFA0B0*%
%FSLAX24Y24*%
%IPPOS*%
%LPD*%
%AMOC8*
5,1,8,0,0,1.08239X$1,22.5*
%
%ADD10R,0.1614X0.1535*%
%ADD11R,0.0118X0.0374*%
%ADD12R,0.0374X0.0118*%
%ADD13R,0.0118X0.0039*%
%ADD14R,0.0500X0.0220*%
%ADD15R,0.0220X0.0500*%
%ADD16R,0.0236X0.0866*%
%ADD17R,0.0787X0.0394*%
%ADD18R,0.1181X0.0433*%
%ADD19R,0.0394X0.0984*%
%ADD20R,0.0984X0.2362*%
%ADD21R,0.0315X0.0354*%
%ADD22R,0.0394X0.0433*%
%ADD23R,0.0433X0.0748*%
%ADD24R,0.0433X0.0394*%
%ADD25R,0.0400X0.1000*%
%ADD26R,0.0217X0.0472*%
D10*
X012500Y008791D03*
D11*
X020181Y013748D03*
X020378Y013748D03*
X020575Y013748D03*
X020772Y013748D03*
X020969Y013748D03*
X020969Y015362D03*
X020772Y015362D03*
X020575Y015362D03*
X020378Y015362D03*
X020181Y015362D03*
D12*
X019768Y014949D03*
X019768Y014752D03*
X019768Y014555D03*
X019768Y014358D03*
X019768Y014161D03*
X021382Y014161D03*
X021382Y014358D03*
X021382Y014555D03*
X021382Y014752D03*
X021382Y014949D03*
D13*
X020870Y014850D03*
X020870Y014732D03*
X020870Y014614D03*
X020870Y014496D03*
X020870Y014378D03*
X020870Y014260D03*
X020673Y014260D03*
X020673Y014378D03*
X020673Y014496D03*
X020673Y014614D03*
X020673Y014732D03*
X020673Y014850D03*
X020476Y014850D03*
X020476Y014732D03*
X020476Y014614D03*
X020476Y014496D03*
X020476Y014378D03*
X020476Y014260D03*
X020280Y014260D03*
X020280Y014378D03*
X020280Y014496D03*
X020280Y014614D03*
X020280Y014732D03*
X020280Y014850D03*
D14*
X014190Y014787D03*
X014190Y014473D03*
X014190Y014158D03*
X014190Y013843D03*
X014190Y013528D03*
X014190Y015102D03*
X014190Y015417D03*
X014190Y015732D03*
X010810Y015732D03*
X010810Y015417D03*
X010810Y015102D03*
X010810Y014787D03*
X010810Y014473D03*
X010810Y014158D03*
X010810Y013843D03*
X010810Y013528D03*
D15*
X011398Y012940D03*
X011713Y012940D03*
X012028Y012940D03*
X012343Y012940D03*
X012657Y012940D03*
X012972Y012940D03*
X013287Y012940D03*
X013602Y012940D03*
X013602Y016320D03*
X013287Y016320D03*
X012972Y016320D03*
X012657Y016320D03*
X012343Y016320D03*
X012028Y016320D03*
X011713Y016320D03*
X011398Y016320D03*
D16*
X006762Y015654D03*
X006262Y015654D03*
X005762Y015654D03*
X005262Y015654D03*
X005262Y013606D03*
X005762Y013606D03*
X006262Y013606D03*
X006762Y013606D03*
D17*
X004929Y016831D03*
D18*
X004929Y019469D03*
D19*
X006476Y016945D03*
X007476Y016945D03*
D20*
X006976Y018945D03*
D21*
X006626Y021236D03*
X007374Y021236D03*
X007000Y022063D03*
X007626Y022236D03*
X008374Y022236D03*
X008000Y023063D03*
X006374Y022236D03*
X005626Y022236D03*
X005000Y022063D03*
X004626Y021236D03*
X005374Y021236D03*
X006000Y023063D03*
X016626Y021236D03*
X017374Y021236D03*
X017000Y022063D03*
X017626Y022236D03*
X018374Y022236D03*
X019000Y022063D03*
X019626Y022236D03*
X020374Y022236D03*
X020000Y023063D03*
X019374Y021236D03*
X018626Y021236D03*
X018000Y023063D03*
D22*
X022370Y015390D03*
X022370Y014721D03*
X023173Y014721D03*
X023173Y015390D03*
X023976Y015390D03*
X023976Y014721D03*
X021075Y012390D03*
X021075Y011721D03*
X021075Y010890D03*
X021075Y010221D03*
X019575Y010721D03*
X019575Y011390D03*
X018575Y011390D03*
X018575Y010721D03*
X009949Y007551D03*
X009949Y006882D03*
X009161Y007079D03*
X009161Y007748D03*
X003650Y006370D03*
X003650Y005701D03*
X001287Y005701D03*
X001287Y006370D03*
X004634Y014295D03*
X004634Y014965D03*
X009949Y015032D03*
X009949Y014362D03*
D23*
X015441Y013902D03*
X016346Y013902D03*
X016346Y015358D03*
X015441Y015358D03*
D24*
X015559Y016130D03*
X016228Y016130D03*
X016228Y013130D03*
X015559Y013130D03*
X019240Y012055D03*
X019909Y012055D03*
X020240Y013055D03*
X020909Y013055D03*
X022240Y013555D03*
X022909Y013555D03*
X021909Y009555D03*
X021240Y009555D03*
X006740Y011941D03*
X006071Y011941D03*
X006071Y012728D03*
X006740Y012728D03*
D25*
X021483Y006772D03*
X024083Y006772D03*
D26*
X002094Y005524D03*
X002469Y005524D03*
X002843Y005524D03*
X002843Y006547D03*
X002094Y006547D03*
M02*
